<?xml version="1.0" encoding="utf-8"?>
<!-- Generator: Adobe Illustrator 22.0.1, SVG Export Plug-In . SVG Version: 6.00 Build 0)  -->
<svg version="1.1" id="Layer_1" xmlns="http://www.w3.org/2000/svg" xmlns:xlink="http://www.w3.org/1999/xlink" x="0px" y="0px"
	 viewBox="0 0 1366 374" style="enable-background:new 0 0 1366 374;" xml:space="preserve">
<style type="text/css">
	.st0{fill:url(#SVGID_1_);}
	.st1{fill:url(#SVGID_2_);}
	.st2{fill:none;}
</style>
<g>
	
		<linearGradient id="SVGID_1_" gradientUnits="userSpaceOnUse" x1="683" y1="163.3929" x2="683" y2="-584.4282" gradientTransform="matrix(1 0 0 -1 0 -20)">
		<stop  offset="0" style="stop-color:#EF3724"/>
		<stop  offset="7.109783e-02" style="stop-color:#F04324"/>
		<stop  offset="0.5167" style="stop-color:#F58922"/>
		<stop  offset="0.8377" style="stop-color:#F8B521"/>
		<stop  offset="1" style="stop-color:#F9C621"/>
	</linearGradient>
	<path class="st0" d="M1366,17.3V362H0V13.1c17.8,1.1,270.1,17,387,46.9c78,20,134,38,322,6c0,0,105.7-19.6,234.8-36.6
		c0.2,0,0.3,0,0.5-0.1c45.5-6,93.8-11.6,141.5-16c0.5,0,1-0.1,1.4-0.1C1200.6,2.8,1309.7-0.2,1366,17.3z"/>
</g>
<g>
	
		<linearGradient id="SVGID_2_" gradientUnits="userSpaceOnUse" x1="683" y1="166.7332" x2="683" y2="-602.1219" gradientTransform="matrix(1 0 0 -1 0 -20)">
		<stop  offset="0" style="stop-color:#EF3724"/>
		<stop  offset="7.109783e-02" style="stop-color:#F04324"/>
		<stop  offset="0.5167" style="stop-color:#F58922"/>
		<stop  offset="0.8377" style="stop-color:#F8B521"/>
		<stop  offset="1" style="stop-color:#F9C621"/>
	</linearGradient>
	<path class="st1" d="M1366,18.8V374H0V64c17.1-0.2,249-2.5,405,28c91.4,17.9,122,19,394-39c0,0,60.4-11.9,144.8-23.6
		c0.2,0,0.3,0,0.5-0.1c42.6-5.9,91.3-11.8,141.5-16c0.5,0,1-0.1,1.4-0.1C1186.6,4.8,1291.5,2.7,1366,18.8z"/>
</g>
<rect y="-394" class="st2" width="1366" height="768"/>
</svg>
