<svg enable-background="new 0 0 1366 768" viewBox="0 0 1366 768" xmlns="http://www.w3.org/2000/svg" xmlns:xlink="http://www.w3.org/1999/xlink"><linearGradient id="a"><stop offset=".00000033222" stop-color="#ef3724"/><stop offset="1" stop-color="#f9c621"/></linearGradient><linearGradient id="b" gradientUnits="userSpaceOnUse" x1="271.198" x2="1499.8197" xlink:href="#a" y1="34.7978" y2="338.539"/><linearGradient id="c" gradientUnits="userSpaceOnUse" x1="477.4219" x2="1578.5911" xlink:href="#a" y1="-134.261" y2="290.9575"/><path d="m1366 0v610.9c-3.7-4.6-7.5-9.1-11.5-13.5-16-17.5-31.5-35.4-48.5-52-11-10.8-21.8-21.8-32.7-32.7-16-15.9-33.4-30-53.3-40.8-14.3-7.7-29.1-14.2-44.5-19.3-9.9-3.3-20-6.3-30.2-8.8-14.5-3.5-29-7-43.8-9.1-.6-.1-1.1-.5-1.6-.8-11.3-1.7-22.8-2.8-34-5.3-12.7-2.9-25.6-4-38.2-6.6-20.2-4.3-40.5-7.9-60.6-12.8-22-5.3-43.7-11.7-64.9-19.5-24.5-9-48.6-19.1-70.8-33-32.9-20.5-56.2-48.9-69.6-85.5-7.8-21.4-12.4-43.6-17.9-65.5-4.7-19.1-10.1-37.9-19.9-55.2-6.9-12.2-15.7-22.9-26.4-32-14.6-12.5-31.7-20.4-49.5-26.7-12-4.3-24.6-7-37-9.7-30.5-6.8-61-13.7-91.2-21.9-20.7-5.6-41.2-12.2-61-20.4-16.5-6.8-32.3-15.3-47.2-25.3-6.7-4.5-13.2-9.3-19.3-14.4h973.6z" fill="url(#b)"/><path d="m471.9 0h894.1v302c-9.8-4.7-20-8.4-30.3-11.6-11.9-3.6-24-6.3-36.3-8.2-18.5-2.8-37.1-4.5-55.8-4.5-8.8 0-17.6-.3-26.5-.5-17.6.4-35.2.6-52.8 1.3-16.8.7-33.7.6-50.5.6-14.5 0-29.1.2-43.5-1.3-16.2-1.6-32.5-2.8-48.7-5.4-20.3-3.2-40.4-7-60.2-12.4-21.3-5.7-41.4-14-60.1-26.3-18.3-12-32.7-27.6-44.8-45.4-11.1-16.5-19.4-34.5-27.5-52.6-10.3-23.1-20.3-46.5-37-66-9.4-11-20.5-19.8-33.3-26.9-16.6-9.2-34.4-13.4-52.7-16.3-12.2-1.9-24.6-2.2-37-2.6-25.2-.7-50.4-1.5-75.5-3-21.1-1.2-42.1-3.5-63.1-6.5-20-2.8-39.6-7.5-58.5-14.4z" fill="url(#c)"/><path d="m0 0h1366v768h-1366z" fill="none"/></svg>