<?xml version="1.0" encoding="utf-8"?>
<!-- Generator: Adobe Illustrator 22.0.1, SVG Export Plug-In . SVG Version: 6.00 Build 0)  -->
<svg version="1.1" id="Layer_1" xmlns="http://www.w3.org/2000/svg" xmlns:xlink="http://www.w3.org/1999/xlink" x="0px" y="0px"
	 viewBox="0 0 173.7 112.3" style="enable-background:new 0 0 173.7 112.3;" xml:space="preserve">
<style type="text/css">
	.st0{fill:#876E46;}
	.st1{fill:#92A23A;}
	.st2{fill:#B1BB32;}
	.st3{fill:#B8DD43;}
	.st4{fill:#FAAE5F;}
	.st5{fill:#F69245;}
	.st6{fill:#898989;}
	.st7{fill:#FFE052;}
	.st8{fill:#FFE2A3;}
	.st9{fill:#F7D48D;}
	.st10{fill:#7FB89E;}
	.st11{fill:#C65F2D;}
	.st12{fill:#8F4221;}
	.st13{fill:#FCF5C9;}
	.st14{opacity:0.3;}
	.st15{fill:#FFFFFF;}
	.st16{fill:#949EA8;}
	.st17{fill:#AD5134;}
	.st18{fill:#D35937;}
	.st19{fill:#EC5224;}
	.st20{fill:#E1E0FB;}
	.st21{fill:#B3BBC0;}
	.st22{fill:#3B4E5B;}
</style>
<g>
	<g>
		<g>
			<polygon class="st0" points="22.1,105.9 18.8,106 17.8,63.5 19.5,63.6 			"/>
		</g>
		<g>
			<path class="st1" d="M31.1,63.9c-2.1,5.1-6.2,5.9-12.4,6.4c-2.5,0.2-8,0.8-10.6-0.5c-3.3-1.6-5.9-5.9-4.6-9.3
				c0.3-0.7,0.4-0.6,0.3-0.9c-0.1-0.2-0.3-0.3-0.5-0.5c-2.3-1.6-2.5-5.4-0.4-7.3c0.5-0.4,1.1-1,1.2-1.4c0-0.2-0.7-1.1-1-1.8
				c-1.2-2.4-0.6-4.7,0.5-5.9C5,41,6.6,41.4,6.7,41c0.2-0.6-2.9-2.5-0.7-6.5c1.6-2.9,4.6-2.3,4.8-2.6c0.3-0.4-0.4-1.8-0.6-2.9
				c-0.5-3.9,1.3-5.4,3.4-6.3c2.1-0.9,5.4,0.9,5.1,3.2c2-1,4.6-0.6,6.3,0.9c1.7,1.5,2.4,4,1.6,6.2c2.8,0.7,4.2,2.6,4.6,4.7
				c0.6,3.2-0.3,4.9-2.7,6.8c2.4,0.8,4.1,2.5,4.4,4.9c0.4,2.4-0.4,5.7-3.5,6.6C30.7,57.4,32.3,60.9,31.1,63.9z"/>
		</g>
		<g>
			<g>
				<path class="st2" d="M15.2,24.8c-5.9,0.4-3.1,8.1-0.1,10.3c0.2-0.8,0.4-1.6,0.5-2.4c-5.4,1-8.7,5.6-4.7,10.4
					c0.3-0.8,0.6-1.7,0.9-2.5c-3,0.5-5.7,1.8-6.3,5c-0.5,3.1,2.2,5.2,4.9,5.8c1.8,0.4,2.5-2.4,0.7-2.8c-4.1-0.9-2.8-4.6,0.8-5.1
					c1.3-0.2,1.8-1.5,0.9-2.5c-3.8-4.5,1.8-5.2,3.6-5.5c1-0.2,1.4-1.8,0.5-2.4c-0.5-0.3-4.5-5.1-1.7-5.3
					C17.2,27.5,17,24.7,15.2,24.8L15.2,24.8z"/>
			</g>
		</g>
		<g>
			<g>
				<path class="st2" d="M16,67.4c3.3,1,8.2,0.8,10.8-1.7c2.7-2.7,1.6-6.3,0.3-9.4c-0.7-1.7-3.5-0.8-2.7,0.9c0.8,2,2.4,5,0.3,6.6
					c-2,1.6-5.6,1.5-7.9,0.8C14.9,64.1,14.3,66.9,16,67.4L16,67.4z"/>
			</g>
		</g>
	</g>
	<g>
		<g>
			<polygon class="st0" points="136.9,85.4 133.7,85.4 134.3,42.8 136,43 			"/>
		</g>
		<g>
			<path class="st1" d="M147.5,43.8c-2.3,5-6.5,5.7-12.6,5.9c-2.5,0.1-8,0.5-10.6-0.9c-3.3-1.8-5.7-6.1-4.3-9.5
				c0.3-0.7,0.4-0.6,0.3-0.9c-0.1-0.2-0.3-0.4-0.5-0.5c-2.3-1.7-2.3-5.5-0.2-7.3c0.5-0.4,1.2-0.9,1.2-1.3c0-0.2-0.7-1.2-1-1.8
				c-1.1-2.5-0.5-4.7,0.7-5.9c1.6-1.7,3.2-1.2,3.3-1.6c0.2-0.6-2.8-2.6-0.4-6.6c1.7-2.8,4.7-2.1,4.9-2.4c0.3-0.4-0.4-1.8-0.5-2.9
				c-0.3-3.9,1.5-5.3,3.6-6.2c2.1-0.9,5.4,1.1,4.9,3.3c2.1-0.9,4.6-0.4,6.3,1.1c1.6,1.6,2.2,4.1,1.4,6.2c2.8,0.8,4.1,2.8,4.4,4.9
				c0.5,3.2-0.5,4.9-2.9,6.7c2.3,0.9,4,2.7,4.3,5.1c0.3,2.4-0.6,5.7-3.8,6.5C147.3,37.3,148.9,40.8,147.5,43.8z"/>
		</g>
		<g>
			<g>
				<path class="st2" d="M133.1,4.1c-5.9,0.1-3.4,8-0.5,10.2c0.2-0.8,0.4-1.6,0.6-2.4c-5.4,0.8-8.9,5.2-5.1,10.2
					c0.3-0.8,0.7-1.6,1-2.5c-3,0.4-5.8,1.6-6.4,4.8c-0.6,3.1,2,5.3,4.7,6c1.8,0.5,2.6-2.3,0.8-2.8c-4.1-1.1-2.6-4.7,1-5.1
					c1.3-0.2,1.8-1.4,1-2.5c-3.6-4.7,2-5.1,3.8-5.4c1-0.2,1.4-1.8,0.6-2.4c-0.4-0.3-4.3-5.3-1.5-5.3C135,6.9,135,4,133.1,4.1
					L133.1,4.1z"/>
			</g>
		</g>
		<g>
			<g>
				<path class="st3" d="M132.3,46.7c3.2,1.1,8.2,1.1,10.9-1.3c2.8-2.6,1.8-6.2,0.6-9.4c-0.7-1.7-3.4-1-2.8,0.8c0.8,2,2.2,5.1,0,6.6
					c-2.1,1.5-5.6,1.3-7.9,0.5C131.3,43.4,130.6,46.1,132.3,46.7L132.3,46.7z"/>
			</g>
		</g>
	</g>
	<g>
		<g>
			<path class="st1" d="M170.6,97.2c-2.3,3.7-6.5,4.2-12.6,4.3c-2.5,0.1-8,0.3-10.6-0.7c-3.3-1.3-5.7-4.4-4.3-7
				c0.3-0.5,0.4-0.4,0.3-0.6c-0.1-0.2-0.3-0.3-0.5-0.4c-2.3-1.2-2.3-4-0.2-5.3c0.5-0.3,1.2-0.7,1.2-1c0-0.2-0.7-0.8-1-1.3
				c-1.1-1.8-0.5-3.4,0.7-4.3c1.6-1.2,3.2-0.9,3.3-1.2c0.2-0.4-2.8-1.9-0.4-4.8c1.7-2.1,4.7-1.5,4.9-1.7c0.3-0.3-0.4-1.3-0.5-2.1
				c-0.3-2.8,1.5-3.9,3.6-4.5c2.1-0.6,5.4,0.8,4.9,2.4c2.1-0.7,4.6-0.3,6.3,0.8c1.6,1.1,2.2,3,1.4,4.5c2.8,0.6,4.1,2,4.4,3.6
				c0.5,2.3-0.5,3.6-2.9,4.9c2.3,0.7,4,1.9,4.3,3.7c0.3,1.8-0.6,4.2-3.8,4.8C170.4,92.5,171.9,95,170.6,97.2z"/>
		</g>
		<g>
			<g>
				<path class="st3" d="M156.2,68.2c-5.9,0.1-3.4,5.8-0.5,7.5c0.2-0.6,0.4-1.2,0.6-1.8c-5.4,0.6-8.9,3.8-5.1,7.5
					c0.3-0.6,0.7-1.2,1-1.8c-3,0.3-5.8,1.1-6.4,3.5c-0.6,2.2,2,3.8,4.7,4.4c1.8,0.3,2.6-1.7,0.8-2c-4.1-0.8-2.6-3.4,1-3.7
					c1.3-0.1,1.8-1,1-1.8c-3.6-3.4,2-3.7,3.8-3.9c1-0.1,1.4-1.3,0.6-1.8c-0.4-0.3-4.3-3.9-1.5-3.9C158,70.3,158,68.2,156.2,68.2
					L156.2,68.2z"/>
			</g>
		</g>
		<g>
			<g>
				<path class="st2" d="M155.4,99.4c3.2,0.8,8.2,0.8,10.9-1c2.8-1.9,1.8-4.6,0.6-6.8c-0.7-1.3-3.4-0.7-2.8,0.6
					c0.8,1.5,2.2,3.7,0,4.9c-2.1,1.1-5.6,0.9-7.9,0.4C154.4,96.9,153.7,98.9,155.4,99.4L155.4,99.4z"/>
			</g>
		</g>
	</g>
	<g>
		<rect x="17.7" y="23.5" class="st4" width="143.7" height="76.9"/>
	</g>
	<g>
		<rect x="60.3" y="55.6" class="st5" width="11.2" height="4.7"/>
	</g>
	<g>
		<rect x="53.5" y="61.6" class="st5" width="11.2" height="4.7"/>
	</g>
	<g>
		<rect x="62.6" y="72.6" class="st5" width="11.2" height="4.7"/>
	</g>
	<g>
		<rect x="116.3" y="80.4" class="st5" width="11.2" height="4.7"/>
	</g>
	<g>
		<rect x="108.4" y="74.4" class="st5" width="11.2" height="4.7"/>
	</g>
	<g>
		<rect x="115.7" y="59.4" class="st5" width="11.2" height="4.7"/>
	</g>
	<g>
		<g>
			<polygon class="st6" points="14.1,98.7 8.7,98.7 9.5,88.6 13.3,88.6 			"/>
		</g>
		<g>
			<rect x="10.7" y="41.9" class="st6" width="1.4" height="50.6"/>
		</g>
		<g>
			<rect x="7.6" y="98.1" class="st6" width="7.7" height="2.2"/>
		</g>
		<g>
			<polygon class="st7" points="13.5,42.2 9.3,42.2 7.6,30.4 15.2,30.4 			"/>
		</g>
		<g>
			<rect x="8.4" y="40.5" class="st6" width="6" height="1.7"/>
		</g>
		<g>
			<path class="st6" d="M7.1,28.7L8,28c2.1-1.5,4.9-1.5,6.9,0.1l0.8,0.6v1.8H7.1V28.7z"/>
		</g>
	</g>
	<g>
		<g>
			<g>
				<path class="st8" d="M162.4,17.9H16.7c-0.6,0-1.1,0.3-1.3,0.8l-2.1,5.4c-0.3,0.8,0.3,1.7,1.3,1.7h149.9c0.9,0,1.6-0.9,1.3-1.7
					l-2.1-5.4C163.5,18.2,163,17.9,162.4,17.9z"/>
			</g>
			<g>
				<path class="st9" d="M160.2,20.6h-11.6c-0.6,0-1-0.5-1-1l0,0c0-0.6,0.5-1,1-1h11.6c0.6,0,1,0.5,1,1l0,0
					C161.2,20.2,160.7,20.6,160.2,20.6z"/>
			</g>
		</g>
		<g>
			<path class="st9" d="M54.3,20.7h-31c-0.6,0-1-0.5-1-1l0,0c0-0.6,0.5-1,1-1h31c0.6,0,1,0.5,1,1l0,0C55.4,20.2,54.9,20.7,54.3,20.7
				z"/>
		</g>
	</g>
	<g>
		<rect x="20.5" y="48.4" class="st10" width="37.3" height="52.2"/>
	</g>
	<g>
		<rect x="20.3" y="48.4" class="st11" width="2" height="52.2"/>
	</g>
	<g>
		<rect x="55.7" y="48.4" class="st11" width="2" height="52.2"/>
	</g>
	<g>
		<rect x="38.5" y="48.4" class="st11" width="2" height="52.2"/>
	</g>
	<g>
		<rect x="20.8" y="56.3" class="st11" width="36.2" height="2"/>
	</g>
	<g>
		<rect x="20.8" y="64.6" class="st11" width="36.2" height="2"/>
	</g>
	<g>
		<rect x="20.8" y="72.9" class="st11" width="36.2" height="2"/>
	</g>
	<g>
		<rect x="20.8" y="81.2" class="st11" width="36.2" height="2"/>
	</g>
	<g>
		<rect x="122.3" y="48.4" class="st10" width="37.3" height="52.2"/>
	</g>
	<g>
		<rect x="122.1" y="48.4" class="st11" width="2" height="52.2"/>
	</g>
	<g>
		<rect x="157.5" y="48.4" class="st11" width="2" height="52.2"/>
	</g>
	<g>
		<rect x="140.3" y="48.4" class="st11" width="2" height="52.2"/>
	</g>
	<g>
		<rect x="122.6" y="56.3" class="st11" width="36.2" height="2"/>
	</g>
	<g>
		<rect x="122.6" y="64.6" class="st11" width="36.2" height="2"/>
	</g>
	<g>
		<rect x="122.6" y="72.9" class="st11" width="36.2" height="2"/>
	</g>
	<g>
		<rect x="122.6" y="81.2" class="st11" width="36.2" height="2"/>
	</g>
	<g>
		<g>
			<g>
				<g>
					<path class="st12" d="M79.4,100.5H17.5c-0.6,0-1.1-0.5-1.1-1.1v-5.9c0-0.6,0.5-1.1,1.1-1.1h61.9V100.5z"/>
				</g>
			</g>
		</g>
		<g>
			<g>
				<path class="st13" d="M72.5,94H20.1c-0.4,0-0.7-0.3-0.7-0.7v-0.3c0-0.4,0.3-0.7,0.7-0.7h52.4c0.4,0,0.7,0.3,0.7,0.7v0.3
					C73.2,93.7,72.9,94,72.5,94z"/>
			</g>
		</g>
	</g>
	<g>
		<g>
			<g>
				<g>
					<path class="st12" d="M77,100.5h84.9c0.6,0,1.1-0.5,1.1-1.1v-5.9c0-0.6-0.5-1.1-1.1-1.1H77V100.5z"/>
				</g>
			</g>
		</g>
		<g>
			<g>
				<path class="st13" d="M109,94h50.4c0.4,0,0.7-0.3,0.7-0.7v-0.3c0-0.4-0.3-0.7-0.7-0.7H109c-0.4,0-0.7,0.3-0.7,0.7v0.3
					C108.4,93.7,108.7,94,109,94z"/>
			</g>
		</g>
	</g>
	<g class="st14">
		<path class="st15" d="M27.1,82.1c0,0.8-0.7,1.5-1.5,1.5l0,0c-0.8,0-1.5-0.7-1.5-1.5V57.6c0-0.8,0.7-1.5,1.5-1.5l0,0
			c0.8,0,1.5,0.7,1.5,1.5V82.1z"/>
	</g>
	<g class="st14">
		<path class="st15" d="M46.6,90.4c0,0.8-0.7,1.5-1.5,1.5l0,0c-0.8,0-1.5-0.7-1.5-1.5V65.9c0-0.8,0.7-1.5,1.5-1.5l0,0
			c0.8,0,1.5,0.7,1.5,1.5V90.4z"/>
	</g>
	<g class="st14">
		<path class="st15" d="M130.6,79.6c0,0.8-0.7,1.5-1.5,1.5l0,0c-0.8,0-1.5-0.7-1.5-1.5V55.1c0-0.8,0.7-1.5,1.5-1.5l0,0
			c0.8,0,1.5,0.7,1.5,1.5V79.6z"/>
	</g>
	<g class="st14">
		<path class="st15" d="M147.5,89.8c0,0.8-0.7,1.5-1.5,1.5l0,0c-0.8,0-1.5-0.7-1.5-1.5V65.3c0-0.8,0.7-1.5,1.5-1.5l0,0
			c0.8,0,1.5,0.7,1.5,1.5V89.8z"/>
	</g>
	<g class="st14">
		<path class="st15" d="M151.8,68.5c0,0.4-0.7,0.8-1.5,0.8l0,0c-0.8,0-1.5-0.4-1.5-0.8V55.1c0-0.4,0.7-0.8,1.5-0.8l0,0
			c0.8,0,1.5,0.4,1.5,0.8V68.5z"/>
	</g>
	<g>
		<g>
			<rect x="67.6" y="48.4" class="st10" width="44.2" height="52.1"/>
		</g>
	</g>
	<g>
		<rect x="67.2" y="48.4" class="st11" width="2" height="52.2"/>
	</g>
	<g>
		<rect x="109.9" y="48.4" class="st11" width="2" height="52.2"/>
	</g>
	<g>
		<path class="st16" d="M6.1,100.3h160.4c1.6,0,2.9,0.7,2.9,1.6v6.7c0,0.9-1.3,1.6-2.9,1.6H6.1c-1.6,0-2.9-0.7-2.9-1.6v-6.7
			C3.3,101,4.5,100.3,6.1,100.3z"/>
	</g>
	<g>
		<g>
			<path class="st1" d="M61.5,86c1.1,0.5,1.8,1.6,1.7,2.8c-0.1,1.1-0.9,2.2-2.1,2.5c0.7,0.1,1.4,1.2,0.4,2.6c-1,1.4-2.3,1.2-2.9,1.5
				c-3.1,1.2-5.2,1-8.4,0.1c-0.9-0.3-1.8-0.7-2.3-1.5c-0.5-0.8-0.5-1.9,0.2-2.5c-1-0.6-1.6-1.8-1.5-2.9c0.1-1.1,0.9-2.2,2-2.6
				c-1.1-1.1-1.5-3-0.8-4.4c0.6-1.5,2.2-2.5,3.8-2.5c-1.1-1.4-1.3-3.5-0.2-4.9c1.1-1.4,3.6-1.5,4.5,0c1.2-0.7,2.9-0.3,3.7,0.8
				c0.8,1.1,0.6,2.8-0.4,3.7c1.2,0.8,2.5,1.8,3.1,3.1C62.8,83.2,62.6,85,61.5,86z"/>
		</g>
		<g>
			<polygon class="st17" points="58.7,96.4 49.9,96.4 51.3,104.1 57.3,104.1 			"/>
		</g>
		<g>
			<path class="st17" d="M59.3,97.1h-10c-0.3,0-0.5-0.2-0.5-0.5v-1c0-0.3,0.2-0.5,0.5-0.5h10c0.3,0,0.5,0.2,0.5,0.5v1
				C59.8,96.8,59.6,97.1,59.3,97.1z"/>
		</g>
		<g>
			<g>
				<path class="st2" d="M53.7,73.8c-4.4,1.4-1.6,6.3,0.6,8.4c0.4-0.7,0.8-1.3,1.1-2c-1.9-0.4-3.7-0.8-5.3,0.6c-1.5,1.4-1.4,3.7,0,5
					c1.1,1,2.7-0.6,1.7-1.6c-0.8-0.7-0.3-1.8,0.6-2c0.7-0.2,1.7,0.2,2.4,0.3c1.1,0.2,2-1.1,1.1-2c-0.7-0.6-3.5-3.9-1.6-4.5
					C55.7,75.6,55.1,73.3,53.7,73.8L53.7,73.8z"/>
			</g>
		</g>
		<g>
			<g>
				<path class="st2" d="M50.1,87.6c-0.8,1.3-0.3,3.2,0.4,4.5c1.1,1.8,3.7,2,5.4,1.3c1.4-0.6,0.8-2.8-0.6-2.3
					c-0.5,0.2-1,0.3-1.5,0.3c-0.2,0-0.5-0.1-0.7-0.2c-0.2-0.1-0.6-0.5-0.5-0.4c-0.3-0.5-0.8-1.6-0.4-2.1
					C52.9,87.5,50.9,86.3,50.1,87.6L50.1,87.6z"/>
			</g>
		</g>
		<g>
			<g>
				<path class="st2" d="M58.7,86.9c0.4-0.2,0.8-0.4,1.1-0.7c0.4-0.5,0.5-1.2,0-1.6c-0.4-0.4-1.2-0.5-1.7,0c0,0-0.1,0.1-0.1,0.1
					c0.1-0.1,0.1-0.1,0,0c-0.1,0.1-0.3,0.2-0.5,0.2c-0.6,0.2-0.7,1.1-0.4,1.6C57.5,87,58.1,87.1,58.7,86.9L58.7,86.9z"/>
			</g>
		</g>
		<g>
			<path class="st18" d="M57.5,96h-7.3c-0.3,0-0.5-0.2-0.5-0.5v0c0-0.3,0.2-0.5,0.5-0.5h7.3c0.3,0,0.5,0.2,0.5,0.5v0
				C58,95.8,57.8,96,57.5,96z"/>
		</g>
	</g>
	<g>
		<g>
			<path class="st1" d="M119.2,86c-1.1,0.5-1.8,1.6-1.7,2.8c0.1,1.1,0.9,2.2,2.1,2.5c-0.7,0.1-1.4,1.2-0.4,2.6
				c1,1.4,2.3,1.2,2.9,1.5c3.1,1.2,5.2,1,8.4,0.1c0.9-0.3,1.8-0.7,2.3-1.5c0.5-0.8,0.5-1.9-0.2-2.5c1-0.6,1.6-1.8,1.5-2.9
				c-0.1-1.1-0.9-2.2-2-2.6c1.1-1.1,1.5-3,0.8-4.4c-0.6-1.5-2.2-2.5-3.8-2.5c1.1-1.4,1.3-3.5,0.2-4.9c-1.1-1.4-3.6-1.5-4.5,0
				c-1.2-0.7-2.9-0.3-3.7,0.8c-0.8,1.1-0.6,2.8,0.4,3.7c-1.2,0.8-2.5,1.8-3.1,3.1C117.9,83.2,118,85,119.2,86z"/>
		</g>
		<g>
			<polygon class="st17" points="121.9,96.4 130.8,96.4 129.3,104.1 123.4,104.1 			"/>
		</g>
		<g>
			<path class="st17" d="M121.3,97.1h10c0.3,0,0.5-0.2,0.5-0.5v-1c0-0.3-0.2-0.5-0.5-0.5h-10c-0.3,0-0.5,0.2-0.5,0.5v1
				C120.8,96.8,121,97.1,121.3,97.1z"/>
		</g>
		<g>
			<g>
				<path class="st2" d="M127,73.8c4.4,1.4,1.6,6.3-0.6,8.4c-0.4-0.7-0.8-1.3-1.1-2c1.9-0.4,3.7-0.8,5.3,0.6c1.5,1.4,1.4,3.7,0,5
					c-1.1,1-2.7-0.6-1.7-1.6c0.8-0.7,0.3-1.8-0.6-2c-0.7-0.2-1.7,0.2-2.4,0.3c-1.1,0.2-2-1.1-1.1-2c0.7-0.6,3.5-3.9,1.6-4.5
					C124.9,75.6,125.5,73.3,127,73.8L127,73.8z"/>
			</g>
		</g>
		<g>
			<g>
				<path class="st2" d="M130.5,87.6c0.8,1.3,0.3,3.2-0.4,4.5c-1.1,1.8-3.7,2-5.4,1.3c-1.4-0.6-0.8-2.8,0.6-2.3
					c0.5,0.2,1,0.3,1.5,0.3c0.2,0,0.5-0.1,0.7-0.2c0.2-0.1,0.6-0.5,0.5-0.4c0.3-0.5,0.8-1.6,0.4-2.1
					C127.7,87.5,129.7,86.3,130.5,87.6L130.5,87.6z"/>
			</g>
		</g>
		<g>
			<g>
				<path class="st2" d="M121.9,86.9c-0.4-0.2-0.8-0.4-1.1-0.7c-0.4-0.5-0.5-1.2,0-1.6c0.4-0.4,1.2-0.5,1.6,0c0,0,0.1,0.1,0.1,0.1
					c-0.1-0.1-0.1-0.1,0,0c0.1,0.1,0.3,0.2,0.5,0.2c0.6,0.2,0.7,1.1,0.4,1.6C123.2,87,122.5,87.1,121.9,86.9L121.9,86.9z"/>
			</g>
		</g>
		<g>
			<path class="st18" d="M123.1,96h7.3c0.3,0,0.5-0.2,0.5-0.5v0c0-0.3-0.2-0.5-0.5-0.5h-7.3c-0.3,0-0.5,0.2-0.5,0.5v0
				C122.6,95.8,122.8,96,123.1,96z"/>
		</g>
	</g>
	<g>
		<rect x="88.7" y="48.4" class="st11" width="2" height="52.2"/>
	</g>
	<g>
		<path class="st11" d="M86.1,74.5h-1.8c-0.5,0-0.9-0.4-0.9-0.9v-6.5c0-0.5,0.4-0.9,0.9-0.9h1.8c0.5,0,0.9,0.4,0.9,0.9v6.5
			C87,74.1,86.6,74.5,86.1,74.5z"/>
	</g>
	<g>
		<path class="st13" d="M85.5,73h-0.7c-0.2,0-0.3-0.3-0.3-0.6v-4.5c0-0.3,0.1-0.6,0.3-0.6h0.7c0.2,0,0.3,0.3,0.3,0.6v4.5
			C85.8,72.7,85.7,73,85.5,73z"/>
	</g>
	<g>
		<path class="st11" d="M95.6,74.5h-1.8c-0.5,0-0.9-0.4-0.9-0.9v-6.5c0-0.5,0.4-0.9,0.9-0.9h1.8c0.5,0,0.9,0.4,0.9,0.9v6.5
			C96.5,74.1,96.1,74.5,95.6,74.5z"/>
	</g>
	<g>
		<path class="st13" d="M95,73h-0.7c-0.2,0-0.3-0.3-0.3-0.6v-4.5c0-0.3,0.1-0.6,0.3-0.6H95c0.2,0,0.3,0.3,0.3,0.6v4.5
			C95.3,72.7,95.2,73,95,73z"/>
	</g>
	<g>
		<g>
			<g>
				<g>
					<g>
						<path class="st19" d="M69.4,48.3h6.3V51c0,1.2-1,2.2-2.2,2.2h-2c-1.2,0-2.2-1-2.2-2.2V48.3z"/>
					</g>
				</g>
			</g>
			<g>
				<g>
					<g>
						<path class="st19" d="M81,48.3h6.1V51c0,1.2-1,2.2-2.2,2.2h-1.8c-1.2,0-2.2-1-2.2-2.2V48.3z"/>
					</g>
				</g>
			</g>
			<g>
				<g>
					<g>
						<path class="st19" d="M92.3,48.3h6.1V51c0,1.2-1,2.2-2.2,2.2h-1.8c-1.2,0-2.2-1-2.2-2.2V48.3z"/>
					</g>
				</g>
			</g>
			<g>
				<g>
					<g>
						<path class="st19" d="M103.7,48.3h6.3V51c0,1.2-1,2.2-2.2,2.2h-2c-1.2,0-2.2-1-2.2-2.2V48.3z"/>
					</g>
				</g>
			</g>
			<g>
				<g>
					<g>
						<path class="st20" d="M75.7,48.3H81V51c0,1.2-1,2.2-2.2,2.2h-1c-1.2,0-2.2-1-2.2-2.2V48.3z"/>
					</g>
				</g>
			</g>
			<g>
				<g>
					<g>
						<path class="st20" d="M87.1,48.3h5.3V51c0,1.2-1,2.2-2.2,2.2h-1c-1.2,0-2.2-1-2.2-2.2V48.3z"/>
					</g>
				</g>
			</g>
			<g>
				<g>
					<g>
						<path class="st20" d="M98.4,48.3h5.3V51c0,1.2-1,2.2-2.2,2.2h-0.9c-1.2,0-2.2-1-2.2-2.2V48.3z"/>
					</g>
				</g>
			</g>
			<g>
				<g>
					<g>
						<path class="st19" d="M112.9,50.1H66.5c-1,0-1.7-1.1-1.4-2.1l3.5-8.6c0.2-0.6,0.8-0.9,1.4-0.9h39c0.6,0,1.1,0.3,1.3,0.9l4,8.6
							C114.7,49,114,50.1,112.9,50.1z"/>
					</g>
				</g>
			</g>
			<g>
				<g>
					<g>
						<path class="st20" d="M110.1,48.3h4.3V51c0,1.2-1,2.2-2.2,2.2l0,0c-1.2,0-2.2-1-2.2-2.2V48.3z"/>
					</g>
				</g>
			</g>
			<g>
				<g>
					<g>
						<path class="st20" d="M65.1,48.3h4.3V51c0,1.2-1,2.2-2.2,2.2l0,0c-1.2,0-2.2-1-2.2-2.2V48.3z"/>
					</g>
				</g>
			</g>
			<g>
				<g>
					<g>
						<g>
							<rect x="87.1" y="38.6" class="st15" width="5.3" height="11.5"/>
						</g>
					</g>
				</g>
				<g>
					<g>
						<g>
							<polygon class="st15" points="81,50.1 81.8,38.6 76.5,38.6 75.7,50.1 							"/>
						</g>
					</g>
				</g>
				<g>
					<g>
						<g>
							<polygon class="st15" points="103.7,50.1 102.9,38.6 97.7,38.6 98.5,50.1 							"/>
						</g>
					</g>
				</g>
				<g>
					<g>
						<g>
							<path class="st15" d="M71.6,38.6H70c-0.6,0-1.1,0.4-1.4,0.9l-3.5,8.6c-0.4,1,0.3,2.1,1.4,2.1h2.8L71.6,38.6z"/>
						</g>
					</g>
				</g>
				<g>
					<g>
						<g>
							<path class="st15" d="M112.9,50.1c1.1,0,1.8-1.1,1.3-2.1l-4-8.6c-0.2-0.5-0.8-0.9-1.3-0.9h-1.1l2.3,11.5H112.9z"/>
						</g>
					</g>
				</g>
			</g>
		</g>
		<g>
			<g>
				<rect x="68.8" y="37" class="st20" width="41.4" height="2.3"/>
			</g>
		</g>
		<g>
			<g>
				<rect x="71.5" y="37" class="st19" width="5" height="2.3"/>
			</g>
		</g>
		<g>
			<g>
				<rect x="81.8" y="37" class="st19" width="5.3" height="2.3"/>
			</g>
		</g>
		<g>
			<g>
				<rect x="92.4" y="37" class="st19" width="5.3" height="2.3"/>
			</g>
		</g>
		<g>
			<g>
				<rect x="103" y="37" class="st19" width="5" height="2.3"/>
			</g>
		</g>
	</g>
	<g>
		<rect x="19.9" y="27" class="st5" width="11.2" height="4.7"/>
	</g>
	<g>
		<rect x="32.2" y="27" class="st5" width="11.2" height="4.7"/>
	</g>
	<g>
		<rect x="25.8" y="33" class="st5" width="11.2" height="4.7"/>
	</g>
	<g>
		<rect x="38.1" y="33" class="st5" width="11.2" height="4.7"/>
	</g>
	<g>
		<rect x="114.1" y="37.3" class="st5" width="11.2" height="4.7"/>
	</g>
	<g>
		<rect x="124.3" y="26.9" class="st5" width="11.2" height="4.7"/>
	</g>
	<g>
		<rect x="136.8" y="26.9" class="st5" width="11.2" height="4.7"/>
	</g>
	<g>
		<rect x="130.7" y="33" class="st5" width="11.2" height="4.7"/>
	</g>
	<g>
		<rect x="44.7" y="27" class="st5" width="11.2" height="4.7"/>
	</g>
	<g>
		<rect x="57.3" y="27" class="st5" width="11.2" height="4.7"/>
	</g>
	<g>
		<g>
			<g>
				<g>
					<g>
						<path class="st19" d="M17.6,48.3H24V51c0,1.2-1,2.2-2.2,2.2h-2c-1.2,0-2.2-1-2.2-2.2V48.3z"/>
					</g>
				</g>
			</g>
			<g>
				<g>
					<g>
						<path class="st19" d="M29.2,48.3h6.1V51c0,1.2-1,2.2-2.2,2.2h-1.8c-1.2,0-2.2-1-2.2-2.2V48.3z"/>
					</g>
				</g>
			</g>
			<g>
				<g>
					<g>
						<path class="st19" d="M40.5,48.3h6.1V51c0,1.2-1,2.2-2.2,2.2h-1.8c-1.2,0-2.2-1-2.2-2.2V48.3z"/>
					</g>
				</g>
			</g>
			<g>
				<g>
					<g>
						<path class="st19" d="M51.9,48.3h6.3V51c0,1.2-1,2.2-2.2,2.2h-2c-1.2,0-2.2-1-2.2-2.2V48.3z"/>
					</g>
				</g>
			</g>
			<g>
				<g>
					<g>
						<path class="st20" d="M23.9,48.3h5.3V51c0,1.2-1,2.2-2.2,2.2h-1c-1.2,0-2.2-1-2.2-2.2V48.3z"/>
					</g>
				</g>
			</g>
			<g>
				<g>
					<g>
						<path class="st20" d="M35.3,48.3h5.3V51c0,1.2-1,2.2-2.2,2.2h-1c-1.2,0-2.2-1-2.2-2.2V48.3z"/>
					</g>
				</g>
			</g>
			<g>
				<g>
					<g>
						<path class="st20" d="M46.6,48.3h5.3V51c0,1.2-1,2.2-2.2,2.2h-0.9c-1.2,0-2.2-1-2.2-2.2V48.3z"/>
					</g>
				</g>
			</g>
			<g>
				<g>
					<g>
						<path class="st19" d="M61.1,50.1H14.7c-1,0-1.7-1.1-1.4-2.1l3.5-8.6c0.2-0.6,0.8-0.9,1.4-0.9h39c0.6,0,1.1,0.3,1.3,0.9l4,8.6
							C62.9,49,62.2,50.1,61.1,50.1z"/>
					</g>
				</g>
			</g>
			<g>
				<g>
					<g>
						<path class="st20" d="M58.3,48.3h4.3V51c0,1.2-1,2.2-2.2,2.2l0,0c-1.2,0-2.2-1-2.2-2.2V48.3z"/>
					</g>
				</g>
			</g>
			<g>
				<g>
					<g>
						<path class="st20" d="M13.3,48.3h4.3V51c0,1.2-1,2.2-2.2,2.2l0,0c-1.2,0-2.2-1-2.2-2.2V48.3z"/>
					</g>
				</g>
			</g>
			<g>
				<g>
					<g>
						<g>
							<rect x="35.3" y="38.6" class="st15" width="5.3" height="11.5"/>
						</g>
					</g>
				</g>
				<g>
					<g>
						<g>
							<polygon class="st15" points="29.2,50.1 30,38.6 24.7,38.6 23.9,50.1 							"/>
						</g>
					</g>
				</g>
				<g>
					<g>
						<g>
							<polygon class="st15" points="51.9,50.1 51.1,38.6 45.9,38.6 46.7,50.1 							"/>
						</g>
					</g>
				</g>
				<g>
					<g>
						<g>
							<path class="st15" d="M19.8,38.6h-1.6c-0.6,0-1.1,0.4-1.4,0.9l-3.5,8.6c-0.4,1,0.3,2.1,1.4,2.1h2.8L19.8,38.6z"/>
						</g>
					</g>
				</g>
				<g>
					<g>
						<g>
							<path class="st15" d="M61.1,50.1c1.1,0,1.8-1.1,1.3-2.1l-4-8.6c-0.2-0.5-0.8-0.9-1.3-0.9H56l2.3,11.5H61.1z"/>
						</g>
					</g>
				</g>
			</g>
		</g>
		<g>
			<g>
				<rect x="17" y="37" class="st20" width="41.4" height="2.3"/>
			</g>
		</g>
		<g>
			<g>
				<rect x="19.7" y="37" class="st19" width="5" height="2.3"/>
			</g>
		</g>
		<g>
			<g>
				<rect x="30" y="37" class="st19" width="5.3" height="2.3"/>
			</g>
		</g>
		<g>
			<g>
				<rect x="40.6" y="37" class="st19" width="5.3" height="2.3"/>
			</g>
		</g>
		<g>
			<g>
				<rect x="51.2" y="37" class="st19" width="5" height="2.3"/>
			</g>
		</g>
	</g>
	<g>
		<g>
			<g>
				<g>
					<g>
						<path class="st19" d="M121.7,48.3h6.3V51c0,1.2-1,2.2-2.2,2.2h-2c-1.2,0-2.2-1-2.2-2.2V48.3z"/>
					</g>
				</g>
			</g>
			<g>
				<g>
					<g>
						<path class="st19" d="M133.3,48.3h6.1V51c0,1.2-1,2.2-2.2,2.2h-1.8c-1.2,0-2.2-1-2.2-2.2V48.3z"/>
					</g>
				</g>
			</g>
			<g>
				<g>
					<g>
						<path class="st19" d="M144.6,48.3h6.1V51c0,1.2-1,2.2-2.2,2.2h-1.8c-1.2,0-2.2-1-2.2-2.2V48.3z"/>
					</g>
				</g>
			</g>
			<g>
				<g>
					<g>
						<path class="st19" d="M156,48.3h6.3V51c0,1.2-1,2.2-2.2,2.2h-2c-1.2,0-2.2-1-2.2-2.2V48.3z"/>
					</g>
				</g>
			</g>
			<g>
				<g>
					<g>
						<path class="st20" d="M128,48.3h5.3V51c0,1.2-1,2.2-2.2,2.2h-1c-1.2,0-2.2-1-2.2-2.2V48.3z"/>
					</g>
				</g>
			</g>
			<g>
				<g>
					<g>
						<path class="st20" d="M139.4,48.3h5.3V51c0,1.2-1,2.2-2.2,2.2h-1c-1.2,0-2.2-1-2.2-2.2V48.3z"/>
					</g>
				</g>
			</g>
			<g>
				<g>
					<g>
						<path class="st20" d="M150.7,48.3h5.3V51c0,1.2-1,2.2-2.2,2.2h-0.9c-1.2,0-2.2-1-2.2-2.2V48.3z"/>
					</g>
				</g>
			</g>
			<g>
				<g>
					<g>
						<path class="st19" d="M165.2,50.1h-46.4c-1,0-1.7-1.1-1.4-2.1l3.5-8.6c0.2-0.6,0.8-0.9,1.4-0.9h39c0.6,0,1.1,0.3,1.3,0.9
							l4,8.6C167,49,166.3,50.1,165.2,50.1z"/>
					</g>
				</g>
			</g>
			<g>
				<g>
					<g>
						<path class="st20" d="M162.4,48.3h4.3V51c0,1.2-1,2.2-2.2,2.2l0,0c-1.2,0-2.2-1-2.2-2.2V48.3z"/>
					</g>
				</g>
			</g>
			<g>
				<g>
					<g>
						<path class="st20" d="M117.4,48.3h4.3V51c0,1.2-1,2.2-2.2,2.2l0,0c-1.2,0-2.2-1-2.2-2.2V48.3z"/>
					</g>
				</g>
			</g>
			<g>
				<g>
					<g>
						<g>
							<rect x="139.4" y="38.6" class="st15" width="5.3" height="11.5"/>
						</g>
					</g>
				</g>
				<g>
					<g>
						<g>
							<polygon class="st15" points="133.3,50.1 134.1,38.6 128.8,38.6 128,50.1 							"/>
						</g>
					</g>
				</g>
				<g>
					<g>
						<g>
							<polygon class="st15" points="156,50.1 155.2,38.6 149.9,38.6 150.7,50.1 							"/>
						</g>
					</g>
				</g>
				<g>
					<g>
						<g>
							<path class="st15" d="M123.9,38.6h-1.6c-0.6,0-1.1,0.4-1.4,0.9l-3.5,8.6c-0.4,1,0.3,2.1,1.4,2.1h2.8L123.9,38.6z"/>
						</g>
					</g>
				</g>
				<g>
					<g>
						<g>
							<path class="st15" d="M165.2,50.1c1.1,0,1.8-1.1,1.3-2.1l-4-8.6c-0.2-0.5-0.8-0.9-1.3-0.9h-1.1l2.3,11.5H165.2z"/>
						</g>
					</g>
				</g>
			</g>
		</g>
		<g>
			<g>
				<rect x="121.1" y="37" class="st20" width="41.4" height="2.3"/>
			</g>
		</g>
		<g>
			<g>
				<rect x="123.8" y="37" class="st19" width="5" height="2.3"/>
			</g>
		</g>
		<g>
			<g>
				<rect x="134.1" y="37" class="st19" width="5.3" height="2.3"/>
			</g>
		</g>
		<g>
			<g>
				<rect x="144.7" y="37" class="st19" width="5.3" height="2.3"/>
			</g>
		</g>
		<g>
			<g>
				<rect x="155.3" y="37" class="st19" width="5" height="2.3"/>
			</g>
		</g>
	</g>
	<g>
		<path class="st21" d="M108.2,35.3H70.9c-8.2,0-14.9-7.2-14.9-16V19c0-8.8,6.7-16,14.9-16h37.3c8.2,0,14.9,7.2,14.9,16v0.3
			C123.1,28.1,116.4,35.3,108.2,35.3z"/>
	</g>
	<g>
		<path class="st22" d="M108.1,37.1H70.9c-8.2,0-14.9-7.2-14.9-16v-0.3c0-8.8,6.7-16,14.9-16h37.3c8.2,0,14.9,7.2,14.9,16v0.3
			C123,29.9,116.4,37.1,108.1,37.1z"/>
	</g>
	<g>
		<g>
			<path class="st15" d="M71.3,25.4l0-5l-2.5,4.2h-0.9l-2.5-4v4.9h-1.8V17h1.6l3.1,5.2l3.1-5.2h1.6l0,8.4H71.3z"/>
			<path class="st15" d="M80.6,23.6h-3.9L76,25.4h-2l3.7-8.4h1.9l3.8,8.4h-2L80.6,23.6z M80,22.2l-1.3-3.2l-1.3,3.2H80z"/>
			<path class="st15" d="M89.6,25.4L88,23.1h-0.1h-1.7v2.3h-1.9V17h3.6c0.7,0,1.4,0.1,1.9,0.4c0.5,0.2,1,0.6,1.3,1.1s0.4,1,0.4,1.6
				s-0.2,1.2-0.5,1.6c-0.3,0.5-0.7,0.8-1.3,1l1.9,2.7H89.6z M89.1,19c-0.3-0.3-0.7-0.4-1.3-0.4h-1.6v2.9h1.6c0.6,0,1-0.1,1.3-0.4
				c0.3-0.3,0.5-0.6,0.5-1.1C89.6,19.6,89.4,19.2,89.1,19z"/>
			<path class="st15" d="M96.2,22.1L95,23.3v2.1h-1.9V17H95V21l3.7-3.9h2.2l-3.5,3.7l3.7,4.7h-2.3L96.2,22.1z"/>
			<path class="st15" d="M108.5,23.9v1.6H102V17h6.3v1.6h-4.4v1.8h3.9v1.5h-3.9v1.9H108.5z"/>
			<path class="st15" d="M111.8,18.6h-2.7V17h7.3v1.6h-2.7v6.8h-1.9V18.6z"/>
		</g>
	</g>
</g>
</svg>
