<svg enable-background="new 0 0 470 257" viewBox="0 0 470 257" xmlns="http://www.w3.org/2000/svg"><path d="m203.5 14.9-40 3.4 3.1 36.9 39.9-3.9z" fill="#5e7c1e"/><path d="m164.3 28.5 40.1-3.2c.3 0 .5-.2.4-.5 0-.3-.3-.4-.5-.4l-40.1 3.2c-.3 0-.5.2-.4.5 0 .3.2.4.5.4z" fill="#263238"/><path d="m179.6 34.4c-.3-.2-.5-.5-.5-.8-.2-1.3 1.4-3.6 2.7-5.4-1.9 1-4.4 2.2-5.6 2.2-.4 0-.7-.1-.9-.3-.1-.1-.2-.4-.2-.8.3-1.6 2.7-2.4 4.7-2.8-1.9-.5-4.1-1.4-4.6-2.5-.2-.4-.1-.9.1-1.3.2-.3.6-.7 1.4-.7 1.4 0 3.6 1.2 5.3 2.3-1.4-1.9-2.8-4.3-2.5-5.6.1-.4.4-.7.8-.9.2-.1.4-.1.6-.1 2 0 3.3 3.9 3.9 6 1.3-1.8 3.8-5.1 5.2-5.1.2 0 .7.1 1 .8.6 1.9-2.3 4.7-4.1 6.2.8-.1 1.7-.1 2.7-.1 2.4 0 3.8.4 4.3 1.2.2.3.4.9 0 1.7-.3.6-1 .9-2 .9-1.3 0-3.2-.6-4.7-1.1 1.4 1.3 2.8 3 2.6 4-.1.3-.3.7-1.1.9-.1 0-.3 0-.4 0-1.9 0-3.1-2.3-3.6-4.1-.5 2.4-1.6 5.7-3.7 5.7-.7 0-1-.1-1.4-.3zm.4-1c0 .1.1.1.1.2.2.1.5.2.7.2 1.5 0 2.6-3.9 3.1-6.7-1.8 2-4.1 5.2-3.9 6.3zm8.3-1.2c.2 0 .3-.1.4-.2.2-.6-1.6-2.5-3.6-4.2.4 2 1.4 4.6 3.2 4.4zm-12.4-2.7h.2c1 0 3.6-1.3 5.6-2.4-2.3.3-5.5 1.1-5.8 2.4zm9.8-2.8c1.5.7 4.3 1.7 6 1.7.6 0 1-.1 1.1-.4.3-.5.1-.7.1-.8-.1-.2-.8-.8-3.5-.8-1.4.1-2.9.2-3.7.3zm-9.1-3.7c-.4 0-.5.1-.6.2-.1.2-.1.3 0 .4.4 1 4 2.1 6.3 2.6.2 0 .4.2.4.4.2-.1.3-.2.4-.3-1.8-1.3-4.9-3.3-6.5-3.3zm8.2 2.2c-.1.2-.3.2-.5.2s-.3-.2-.4-.4c-.6-2.6-2-6.2-3.2-6.2-.1 0-.1 0-.2 0s-.2.1-.2.2c-.3 1.2 2.4 5.1 4.3 7.2 0-.1.1-.2.2-.3 2.2-1.6 5.5-4.7 5.1-6.2 0-.1 0-.1 0-.1-.8.1-3.3 2.9-5.1 5.6z" fill="#263238"/><path d="m186.4 54.1c.3 0 .5-.2.5-.5l-2.8-37c0-.3-.2-.5-.5-.4-.3 0-.5.2-.4.5l2.8 37c-.1.2.1.4.4.4z" fill="#263238"/><path d="m175 102.1s-12.1 1.4-22.3-11.9c-10.3-13.2 10.9-27.4 13.9-35 2.2-5.5-3.2-9.8-2.8-7.1.5 2.8 2.4 3.5-3.6 7.1-5.9 3.7-61.2 29.7-2.5 69.3 0 0 18.9-10.7 17.3-22.4z" fill="#eab3a4"/><path d="m138.3 108.6s15.2-18.7 17.6-16.8c10.3 8 24.8 8 24.8 8s-15.4 27.9-19 27.2c-3.6-.6-24.8-13.4-23.4-18.4z" fill="#c53a1e"/><path d="m216.4 146.5s29-36.8 45.5-35.5c28.1 2.1 45.5 40.5 48.6 41.9 3.6 1.7 8.1-1.6 9 .4s-3.9 7.5-11.5 6c-7.7-1.5-30.5-32.9-43.9-27.3-6.8 2.9-18.9 65.8-51.3 53.6-19-7.3-8-27.9 3.6-39.1z" fill="#eab3a4"/><path d="m231 138.1s11.1-29.5 28.2-33.9c17.2-4.3 50.2 22.6 53.1 20.6 2.4-1.7 6-1.9 8-3.6 1.7-1.4-.9 9.6-4.9 10.7-10 2.7-45.4-14-50.8-8.1s-8.9 37.5-27.4 49.5c-18.5 11.9-13.9-19.8-6.2-35.2z" fill="#eab3a4"/><path d="m223.1 138.5s22.6-31.4 43.3-26.9c16.4 3.6 38.1 29.9 40.1 32.7 1.9 2.8-5.8 11.6-10.6 11.7s-23.4-26.9-26.4-23c-20.3 26.6-28.6 57.4-51.3 53.9-11.6-1.8 2.2-44.8 4.9-48.4z" fill="#8f4221"/><path d="m200.3 98.2s18.3-13.6 21.3-20.6c7.8-18.2-8.2-20.5-14-24.4-6.9-4.6-2.5-12.9-2.1-9.8s.7 5.1 2.2 5.7c1.4.6 29.7-2.1 32.9 22.2 3 23.1-24.2 40.3-24.2 40.3s-16.8-10.9-16.1-13.4z" fill="#eab3a4"/><path d="m197.8 96s11.7-4.7 15.5-10.2 22.1 8.6 21.4 13.8c-.7 5.3-4.3 8.2-16.8 14.4s-20.1-18-20.1-18z" fill="#c53a1e"/><path d="m233.1 93.4s-5.5-3.3-4.6-4.5c7.8-9.2 10.8-24 7.3-25.8-3.2-1.6 12.4 7.1-2.7 30.3z" fill="#cc5a5d" opacity=".5"/><path d="m160.5 107.6s45.6-20.2 55.9-8.6-10.8 37.7 6.8 39.5c0 0 10.7 48.6-6.8 48.6-42 0-69-67.9-55.9-79.5z" fill="#c53a1e"/><path d="m198.7 95.6s-7.4 1.8-6.2-13.5c.4-5.2-5.7-4.6-7-3.2-1.2 1.5 4.4 17.2-6.7 20.8-1.2.4 17.1 14.2 19.9-4.1z" fill="#eab3a4"/><path d="m182.4 79.3s-2 11.1 2.9 9.5c13.4-4.2 6.4-14.5 4.1-14.9-2.3-.3-6.3 1.5-7 5.4z" fill="#eab3a4"/><path d="m190.9 88.9s-2.4 2.6-5.2 3.1c0 0-.8 3.4-2.1 5.4-.4.5 10.1-1.8 7.3-8.5z" fill="#cc5a5d" opacity=".5"/><path d="m302.4 156.4s6.3-6.7 7.1-6c4.6 4.4 17.9-5.7 16.6-3s-14 16.7-15.6 16.9c-1.6.1-8.1-7.9-8.1-7.9z" fill="#c53a1e"/><path d="m311 154.9c.1-.1.3-.2.3-.3l1.5-3.1c.2-.3 0-.7-.3-.9s-.7 0-.9.3l-1.5 3.1c-.2.3 0 .7.3.9.3.1.5.1.6 0z" fill="#3e2d4a"/><path d="m314.2 155.9c.2-.1.4-.3.4-.6l.3-4.2c0-.4-.2-.7-.6-.7s-.7.2-.7.6l-.3 4.2c0 .4.2.7.6.7.1.1.2.1.3 0z" fill="#3e2d4a"/><path d="m317.7 154.8c.3-.1.4-.5.4-.8l-1-4c-.1-.4-.5-.6-.8-.5-.4.1-.6.5-.5.8l1 4c.1.4.5.6.8.5 0 .1.1 0 .1 0z" fill="#3e2d4a"/><path d="m307.8 133.1s1.2-9.1 2.2-9c6.3.8 11.2-15.1 11.7-12.2s-1.5 21.8-2.7 22.8-11.2-1.6-11.2-1.6z" fill="#c53a1e"/><path d="m313.9 126.9c.1-.1.1-.3.1-.5l-.7-3.4c-.1-.4-.4-.6-.8-.5s-.6.4-.5.8l.7 3.4c.1.4.4.6.8.5.2 0 .4-.2.4-.3z" fill="#3e2d4a"/><path d="m317.1 125.9c.1-.2.1-.5 0-.7l-2.2-3.6c-.2-.3-.6-.4-.9-.2s-.4.6-.2.9l2.2 3.6c.2.3.6.4.9.2.1-0 .2-.1.2-.2z" fill="#3e2d4a"/><path d="m319.3 122.9c.2-.3.1-.6-.2-.8l-3.1-2.6c-.3-.2-.7-.2-1 .1-.2.3-.2.7.1 1l3.1 2.6c.3.2.7.2 1-.1-0-.1.1-.2.1-.2z" fill="#3e2d4a"/><path d="m305.8 121.3s1.9 8.4-5 11.7c-6.9 3.4-30.1-9-32.7-7.8-2.6 1.3-31 23.8-31 23.8l-14.1-10.5s23.1-31 36.1-34.2c17.2-4.3 42.6 14.1 46.7 17z" fill="#8f4221"/><path d="m184.8 70.2s-4 2.9-1.6 6.9c1 1.7 6.5-.1 7.1.7s1.2 2.9 0 5.7-4.8.6-5.6 0-2.8-.1-2.8.7-.5 5.1 1.2 6.9 7.2-2.2 7.8-4.1c.6-1.8.2-4 .8-5s1-1.2 1.3-.7c.6 1.5-1.6 2.8-1.3 3.6.4.8 3.2-1.5 3.2-4.1s-.7-8.1-3.2-7c-3.5 1.6-3-4.3-6.9-3.6z" fill="#263238"/><path d="m147.3 97s-6.1 6.8-8.1 8.6c-1.8 1.7-6.5-10.6-6.3-18.3s5.7-14.3 6.6-14.3-8.4 12.7 7.8 24z" fill="#cc5a5d" opacity=".5"/><path d="m140.1 109.4s8.6-6.2 9.5-6.4 10.4 7.7 11.9 8.6c1.4.9-2.5 11.6-4 11.5-1.4-.2-16.5-10-17.4-13.7z" fill="#b23234"/><path d="m164.9 124.5s8.5 16.2 17 19.9c8.5 3.8 30.6-11.3 31.7-9.4s4 5.4 6.9 5.5c3 .1 2 42.7-4.2 43.7-12.8 2-39.6-19.6-46.9-35.2s-8.6-18.2-8.6-22.7 4-13.7 4.3-12.2c.4 1.4-1.9 5.2-.2 10.4z" fill="#b23234"/><path d="m216.4 105.6s1.7-4.2 5.8-5.8 5-9.3 5.5-8 5.1 4.9 4.5 8c-1.1 5.1-13.8 13.2-14.7 11.1-.1-.2-2.4-4.6-1.1-5.3z" fill="#b23234"/><path d="m228.4 141.2s10.5-7.3 21.3-14 12.9-12.7 19.4-9.3 29.9 26.6 30.2 29c.3 2.5-2.2 7-4.6 5.3s-21.6-23.6-27.2-22.8c-5.7.8-25.3 45.7-41.2 53.4 0 0 3.7-16.3 3.4-24s-1.3-17.6-1.3-17.6z" fill="#3e2d4a" opacity=".1"/><path d="m303.7 121.7s-23.3-12.3-25.7-12.1 20 22.1 21 21c1.1-1.1 6.4-3.4 4.7-8.9z" fill="#3e2d4a" opacity=".1"/><path d="m257.1 157.6-40.1 3.4 3.1 37 40-3.9z" fill="#e6b11b"/><path d="m217.9 171.3 40.1-3.2c.3 0 .5-.2.4-.5 0-.3-.3-.4-.5-.4l-40.1 3.2c-.3 0-.5.2-.4.5 0 .2.2.4.5.4z" fill="#3e2d4a"/><path d="m233.2 177.1c-.3-.2-.5-.5-.5-.8-.2-1.3 1.4-3.6 2.7-5.4-1.9 1-4.4 2.2-5.6 2.2-.4 0-.7-.1-.9-.3-.1-.1-.2-.4-.2-.8.3-1.6 2.7-2.4 4.7-2.8-1.9-.5-4.1-1.4-4.6-2.5-.2-.4-.1-.9.1-1.3.2-.3.6-.7 1.4-.7 1.4 0 3.6 1.2 5.3 2.3-1.4-1.9-2.8-4.3-2.5-5.6.1-.4.4-.7.8-.9.2-.1.4-.1.6-.1 2 0 3.3 3.9 3.9 6 1.3-1.8 3.8-5.1 5.2-5.1.2 0 .7.1 1 .8.6 1.9-2.3 4.7-4.1 6.2.8-.1 1.7-.1 2.7-.1 2.4 0 3.8.4 4.3 1.2.2.3.4.9 0 1.7-.3.6-1 .9-2 .9-1.3 0-3.2-.6-4.7-1.1 1.4 1.3 2.8 3 2.6 4-.1.3-.3.7-1.1.9-.1 0-.3 0-.4 0-1.9 0-3.1-2.3-3.6-4.1-.5 2.4-1.6 5.7-3.7 5.7-.7.1-1.1-.1-1.4-.3zm.4-1c0 .1.1.1.1.2.2.1.5.2.7.2 1.5 0 2.6-3.9 3.1-6.7-1.8 2-4.1 5.2-3.9 6.3zm8.3-1.2c.2 0 .3-.1.4-.2.2-.6-1.6-2.5-3.6-4.2.4 2 1.4 4.7 3.2 4.4zm-12.4-2.7h.2c1 0 3.6-1.3 5.6-2.4-2.3.3-5.5 1.1-5.8 2.4zm9.8-2.7c1.5.7 4.3 1.7 6 1.7.6 0 1-.1 1.1-.4.3-.5.1-.7.1-.8-.1-.2-.8-.8-3.5-.8-1.4 0-3 .2-3.7.3zm-9.1-3.8c-.4 0-.5.1-.6.2-.1.2-.1.3 0 .4.4 1 4 2.1 6.3 2.6.2 0 .4.2.4.4.2-.1.3-.2.4-.3-1.8-1.3-4.9-3.3-6.5-3.3zm8.2 2.2c-.1.2-.3.2-.5.2s-.3-.2-.4-.4c-.6-2.6-2-6.2-3.2-6.2-.1 0-.1 0-.2 0s-.2.1-.2.2c-.3 1.2 2.4 5.1 4.3 7.2 0-.1.1-.2.2-.3 2.2-1.6 5.5-4.7 5.1-6.2 0-.1 0-.1 0-.1-.8.1-3.3 2.9-5.1 5.6z" fill="#3e2d4a"/><path d="m240 196.8c.3 0 .5-.2.5-.5l-2.8-37c0-.3-.2-.5-.5-.4-.3 0-.5.2-.4.5l2.8 37c-.1.2.1.4.4.4z" fill="#3e2d4a"/><path d="m337.6 43.5c-1.8-18.8 11.3-14.9 15.4-12.6s5.3-6.5 7.7-8.9 9.7-8.6 18.2-2.3 7.3 20.7-7 27-12.4 4.6-15.6 4.5c-6.3-.5-18-.8-18.7-7.7z" fill="#263238"/><path d="m288.4 56 33.2 17.4-18.4 38.3-34.9-19.5z" fill="#c53a1e"/><path d="m289.3 64.4c-.1 0-.2 0-.3 0-.5-.1-.8-.7-.7-1.2.2-.6 4.6-15.8 16.8-18.2.5-.1 1.1.3 1.2.8s-.2 1.1-.8 1.2c-11 2.1-15.2 16.6-15.3 16.7-.1.4-.5.7-.9.7z" fill="#3e2d4a"/><path d="m440.8 95.8c-.4 0-.8-.3-1-.7-7.5-25-14.3-26.5-14.3-26.5-.5-.1-.9-.6-.9-1.1s.6-.9 1.1-.9c.8.1 8.1 1.7 16 27.9.2.5-.1 1.1-.7 1.2-0 .1-.1.1-.2.1z" fill="#3e2d4a"/><path d="m355.2 45.9s-25.7 1.1-34.9-.8c-10.2-2.1-28.5-31.8-38-26.4-4.2 2.4 3.1.5 6 4.6s-1.3 33.1 34.4 43.3c23.4 6.7 28 5.2 28 5.2z" fill="#eab3a4"/><path d="m390.8 52.5s20.5 15.4 28.4 15.1 3.4-40.6 11.7-42.7c4.5-1.2-1.8 4 .7 9 2.5 5.1 17.4 44.5-1.3 53.8s-50.5-3.7-49.1-15.3c1.5-11.7 4.5-21.5 9.6-19.9z" fill="#eab3a4"/><path d="m376.4 46s10.5.3 16.5 7.5c5.9 7.3 8.4 24.4 5.2 31.3s-26.2 9.2-33.8 2-19-40 12.1-40.8z" fill="#e6b11b"/><path d="m347.8 48.6s9.5-9.5 28.4.7 31.6 38.9 8.4 69c0 0-26.4-11.8-29.8-13.6-6.4-3.4 5.5-2.4 2.2-16.3-3-13.8-15-35.3-9.2-39.8z" fill="#e6b11b"/><path d="m410.3 98.2 36.5-8.5 11.6 45.1-39.2 7.8z" fill="#fb8c00"/><path d="m377.6 46.4s-4.4-10.3-2-14.9-3.3-6.4-4.7-5.2-1.2 15-9 18.6c-1.2.6 19.4 16.4 15.7 1.5z" fill="#eab3a4"/><path d="m366.6 26.3s-3.8 10.3 1.4 9.8c12.9-1.1 8.7-13.3 6.4-14s-6.5.4-7.8 4.2z" fill="#eab3a4"/><path d="m369.4 22.2s-.5 5.4 3.6 8.4c1.8 1.3 2.2-2.1 2.9-.4 1.1 2.7-.2 2.2-.5 3.5-1 4.3 2.4 5.6 5.2-.2.6-1.2.7-3.1-.6-7.8s-8-7-10.8-5.5-5.7 9.2-5 7.5c2.3-5.6 3.7-4.2 5.2-5.5z" fill="#263238"/><path d="m373 34.4s-1.7 1.8-4.4 1.8c0 0-.9 4.1-2.1 5.6-.4.6 7.2-.8 6.5-7.4z" fill="#cc5a5d" opacity=".5"/><path d="m391 111.4s21.3 40.9 18.5 58c-2.7 17.2-38.8 50-35 54.4s6.6 7.2 3.8 4.4-14.2-.5-12.3-6.9c2.8-9 18.2-50.8 15.3-54.1s-25.7-38.2-22.2-45.3 28.4-9.9 31.9-10.5z" fill="#eab3a4"/><path d="m368.6 213.9s8.7 3 8.3 4c-2.1 6 12.5 14 9.6 14-3-.1-21-5.9-21.8-7.3s3.9-10.7 3.9-10.7z" fill="#fb8c00"/><path d="m373.5 221.1c.1.1.3.2.4.2h3.5c.4 0 .7-.3.7-.7s-.3-.7-.7-.7h-3.5c-.4 0-.7.3-.7.7.1.2.2.4.3.5z" fill="#3e2d4a"/><path d="m373.9 224.5c.2.2.4.2.7.1l3.9-1.4c.4-.1.5-.5.4-.9-.1-.3-.5-.5-.9-.4l-3.9 1.4c-.4.1-.5.5-.4.9 0 .1.1.2.2.3z" fill="#3e2d4a"/><path d="m376.3 227.2c.2.2.6.2.9 0l3.2-2.5c.3-.2.3-.7.1-1s-.7-.3-1-.1l-3.2 2.5c-.2.3-.3.7 0 1.1 0-.1 0 0 0 0z" fill="#3e2d4a"/><path d="m371 135.9s-4.3 34.3-25.7 42.5c-16.2 6.2-38.6 13.8-53.6 19.8-.9.4-7.5-3.1-7.5-3.1l5.3-4.7s39.3-15.3 40.8-25.4 8.4-43.2 13.3-51.1c7.4-11.9 39.8-11.9 27.4 22z" fill="#eab3a4"/><path d="m293.2 189s1.7 9 .7 9.2c-6.3 1.2-6 17.8-7.4 15.2s-5.3-21.2-4.4-22.6c.7-1.3 11.1-1.8 11.1-1.8z" fill="#fb8c00"/><path d="m289.3 196.8c0 .2 0 .3.1.5l1.7 3c.2.3.6.4.9.3.3-.2.4-.6.3-.9l-1.7-3c-.2-.3-.6-.4-.9-.3s-.4.3-.4.4z" fill="#3e2d4a"/><path d="m286.6 198.8c0 .2 0 .5.2.6l3.2 2.7c.3.2.7.2 1-.1.2-.3.2-.7-.1-1l-3.2-2.7c-.3-.2-.7-.2-1 .1-.1.2-.1.3-.1.4z" fill="#3e2d4a"/><path d="m285.4 202.3c-.1.3.1.6.4.8l3.8 1.5c.3.1.7 0 .9-.4.1-.4 0-.7-.4-.9l-3.8-1.5c-.3-.1-.7 0-.9.4z" fill="#3e2d4a"/><path d="m378 122.2s-13.1 44.3-22.5 54.3-50.9 19.9-52.8 19-4.4-10.5-3.4-14 21-13.7 28.6-19.3c7.5-5.6 8.4-45.5 17-52 8.5-6.6 30.7-5.9 33.1 12z" fill="#263238"/><path d="m398 126.4s16 27.5 11.4 43-24.4 41.4-27.6 41.6-9.8-2.6-11.4-5.7 13.8-34 10.9-38-23.6-34.3-20.8-40.9c2.7-6.5 27.5-16.2 37.5 0z" fill="#263238"/><path d="m355.5 98.8s31 7.6 37.4 5.8c0 0 .9 13.4-1.8 14.4-2.6 1-41.8-8.6-43.3-10.1-1.4-1.4 7.7-10.1 7.7-10.1z" fill="#eab3a4"/><path d="m347.9 109s33 10 44.6 5.3c0 0 3.3 6.5 5.6 12.1 0 0-27.4 7.4-39.3 0-12-7.4-10.9-17.4-10.9-17.4z" fill="#263238"/><path d="m390.8 51.4s12.5 7.6 14.8 10.9-4.9 17.1-8.4 19.1c-3.6 2-13.5-19.6-6.4-30z" fill="#e6b11b"/><path d="m340.5 46s-1.8 24.5 0 25.9c1.8 1.5 15.8 3.6 16.7 1.8s4.7-28.8 4.7-28.8-4.3-1.4-21.4 1.1z" fill="#e6b11b"/><path d="m355.8 73.1s9.3 4.8 16.6 8.5 22.2 2.3 22.4 3.9-1.9 13.6-4 15.7c-2.2 2.1-26.3-1.7-28.9-3.8s-2.1-10.6-3.2-15.8c-1.1-5.3-4.6-8-2.9-8.5z" fill="#c53a1e" opacity=".2"/><path d="m394.9 57.7s4.6 14.6 4.4 15.3c-.1.7 3.3-4.9 3.2-7.7-.1-2.7-7.6-7.6-7.6-7.6z" fill="#c53a1e" opacity=".2"/><path d="m351.7 70.2s-.4-8.2 0-10.7c.4-2.6-7.4 4.4-9.7 3.9-2.3-.4 0 5.2 0 5.2s1.1 3.4 9.7 1.6z" fill="#c53a1e" opacity=".2"/><path d="m390.4 110.1s-13.8-1-22.7-3.5c-8.8-2.5-16.4-1.4-15.8-1.8.5-.4 3.4-3.6 3.9-3.9s27.9 5.2 31.5 4.6 3.1 4.6 3.1 4.6z" fill="#cc5a5d" opacity=".5"/><path d="m297.3 46s6.4 4.2 15.6 8.7 24.8 5.7 25 6.7c.1.9.4 7.3-.5 7.2s-18.3-3-25.6-7.8-17.5-14.9-14.5-14.8z" fill="#cc5a5d" opacity=".5"/><path d="m316.1 76.7c-.2 0-.4-.1-.6-.2-.4-.3-.5-.9-.2-1.4 14.4-20 2.7-30.4 2.2-30.9-.4-.4-.5-1-.1-1.4s1-.5 1.4-.1c.1.1 13.7 12-1.9 33.6-.2.3-.5.4-.8.4z" fill="#263238"/><path d="m404 77.9s8.3 5.6 20.3 3.3 12.1-17.6 12.8-15.8c.7 1.9 2.5 15.8-10.1 20.6s-24.8.7-25.9 0-.9-4.9 0-5.7 2.9-2.4 2.9-2.4z" fill="#cc5a5d" opacity=".5"/><path d="m416.8 102.2c-.4 0-.7-.2-.9-.6-.3-.7-7.6-16.1-3.7-27.3 1.4-4 4.1-6.9 7.9-8.7.5-.2 1.1 0 1.3.5s0 1.1-.5 1.3c-3.4 1.6-5.7 4.2-6.9 7.6-3.7 10.4 3.5 25.6 3.6 25.8.2.5 0 1.1-.5 1.3-0 .1-.2.1-.3.1z" fill="#263238"/><path d="m416.3 111.4s11.7 12.4 18 14.5c6.4 2.2 20.4 6.5 20.4 6.5l-32.9 6.5z" fill="#3e2d4a" opacity=".1"/><path d="m273.7 89.7 12.1-21.2s4.7 18.3 6.8 24.2 8.4 13.9 8.4 13.9z" fill="#22182b" opacity=".1"/><path d="m155.2 155.9 33.2-1.1 2.3 41.2h-35.3z" fill="#263238"/><path d="m165 173.7c-.3-.2-.5-.5-.5-.8-.1-1.3 1.5-3.6 2.9-5.2-1.9.9-4.5 2.1-5.7 2-.4 0-.7-.1-.8-.4-.1-.1-.2-.4-.1-.8.4-1.6 2.8-2.3 4.8-2.6-1.8-.6-4-1.6-4.5-2.7-.2-.4-.1-.9.2-1.3.2-.3.6-.7 1.4-.6 1.4.1 3.5 1.4 5.2 2.6-1.3-1.9-2.6-4.4-2.3-5.7.1-.4.4-.7.8-.8.2-.1.4-.1.6-.1 1.9.1 3.1 4.1 3.6 6.1 1.4-1.8 4-4.9 5.4-4.9.2 0 .7.1.9.8.5 1.9-2.5 4.6-4.3 6 .8 0 1.7-.1 2.7 0 2.4.1 3.8.6 4.2 1.4.2.3.3.9-.1 1.7-.3.6-1 .9-2 .9-1.3-.1-3.2-.7-4.7-1.3 1.4 1.4 2.7 3.1 2.4 4.1-.1.3-.4.7-1.2.8-.1 0-.3 0-.4 0-1.9-.1-3-2.4-3.5-4.3-.6 2.4-1.9 5.7-3.9 5.6-.3-.1-.7-.2-1.1-.5zm.5-.9c0 .1.1.1.1.2.2.2.5.2.7.2 1.5.1 2.8-3.8 3.3-6.5-1.8 1.8-4.3 5-4.1 6.1zm8.3-.9c.2 0 .4-.1.4-.1.2-.6-1.5-2.5-3.4-4.3.4 1.9 1.2 4.6 3 4.4zm-12.2-3.2h.2c1 0 3.7-1.1 5.7-2.1-2.4.2-5.6.8-5.9 2.1zm9.8-2.4c1.5.7 4.2 1.9 6 2 .6 0 1-.1 1.2-.4.3-.5.1-.7.1-.8-.1-.2-.8-.8-3.5-.9-1.5 0-3 .1-3.8.1zm-8.9-4.1c-.4 0-.5.1-.6.2-.1.2-.1.3-.1.4.4 1 3.9 2.3 6.2 2.8.2 0 .3.2.4.4.2-.1.3-.2.5-.2-1.8-1.4-4.8-3.5-6.4-3.6zm8.2 2.5c-.1.2-.3.2-.5.2s-.3-.2-.4-.4c-.5-2.6-1.7-6.3-2.9-6.4-.1 0-.1 0-.2 0s-.2.1-.2.2c-.4 1.2 2.2 5.2 4 7.4 0-.1.1-.2.2-.3 2.3-1.5 5.7-4.5 5.3-6 0-.1 0-.1 0-.1-.9.1-3.4 2.9-5.3 5.4z" fill="#e6b11b"/><path d="m167.7 196.5c-.3 0-.6-.3-.5-.6l3.8-40.4c0-.3.3-.5.6-.5s.5.3.5.6l-3.8 40.4c-.1.3-.3.5-.6.5z" fill="#e6b11b"/><path d="m155.2 166.1c-.3 0-.5-.2-.5-.5s.2-.5.5-.5l33.8-.5c.3 0 .5.2.5.5s-.2.5-.5.5z" fill="#e6b11b"/><path d="m178.9 177.1 59.7 5-1.2 17.2-58.5-.8z" fill="#5e7c1e"/><path d="m201.6 194.7c-.3-.2-.5-.5-.5-.8-.2-1.3 1.4-3.6 2.7-5.4-1.9 1-4.4 2.2-5.6 2.2-.4 0-.7-.1-.9-.3-.1-.1-.2-.4-.2-.8.3-1.6 2.7-2.4 4.7-2.8-1.9-.5-4.1-1.4-4.6-2.5-.2-.4-.1-.9.1-1.3.2-.3.6-.7 1.4-.7 1.4 0 3.6 1.2 5.3 2.3-1.4-1.9-2.8-4.3-2.5-5.6.1-.4.4-.7.8-.9.2-.1.4-.1.6-.1 2 0 3.3 3.9 3.9 6 1.3-1.8 3.8-5.1 5.2-5.1.2 0 .7.1 1 .8.6 1.9-2.3 4.7-4.1 6.2.8-.1 1.7-.1 2.7-.1 2.4 0 3.8.4 4.3 1.2.2.3.4.9 0 1.7-.3.6-1 .9-2 .9-1.3 0-3.2-.6-4.7-1.1 1.4 1.3 2.8 3 2.6 4-.1.3-.3.7-1.1.9-.1 0-.3 0-.4 0-1.9 0-3.1-2.3-3.6-4.1-.5 2.4-1.6 5.7-3.7 5.7-.6.1-1-.1-1.4-.3zm.4-1c0 .1.1.1.1.2.2.1.5.2.7.2 1.5 0 2.6-3.9 3.1-6.7-1.7 2-4 5.2-3.9 6.3zm8.3-1.2c.2 0 .3-.1.4-.2.2-.6-1.6-2.5-3.6-4.2.5 2 1.5 4.7 3.2 4.4zm-12.3-2.7h.2c1 0 3.6-1.3 5.6-2.4-2.4.3-5.5 1.1-5.8 2.4zm9.8-2.7c1.5.7 4.3 1.7 6 1.7.6 0 1-.1 1.1-.4.3-.5.1-.7.1-.8-.1-.2-.8-.8-3.5-.8-1.5 0-3 .2-3.7.3zm-9.1-3.8c-.4 0-.5.1-.6.2-.1.2-.1.3 0 .4.4 1 4 2.1 6.3 2.6.2 0 .4.2.4.4.2-.1.3-.2.4-.3-1.8-1.3-5-3.3-6.5-3.3zm8.2 2.2c-.1.2-.3.2-.5.2s-.3-.2-.4-.4c-.6-2.6-2-6.2-3.2-6.2-.1 0-.1 0-.2 0s-.2.1-.2.2c-.3 1.2 2.4 5.1 4.3 7.2 0-.1.1-.2.2-.3 2.2-1.6 5.5-4.7 5.1-6.2 0-.1 0-.1 0-.1-.9.1-3.3 2.9-5.1 5.6z" fill="#3e2d4a"/><path d="m238.1 189.6-59.2-3.3c-.3 0-.5-.3-.5-.6s.3-.5.6-.5l59.2 3.3c.3 0 .5.3.5.6-.1.3-.3.5-.6.5z" fill="#3e2d4a"/><path d="m206.5 199.4c-.3 0-.5-.2-.5-.5v-19.4c0-.3.2-.5.5-.5s.5.2.5.5v19.4c.1.2-.2.5-.5.5z" fill="#3e2d4a"/><g fill="#263238"><path d="m262.9 218.7h-108c-.5 0-.9-.4-1-.9l-15.5-106.3h-19.1c-.6 0-1-.4-1-1s.4-1 1-1h20c.5 0 .9.4 1 .9l15.5 106.3h107.2c.6 0 1 .4 1 1s-.5 1-1.1 1z"/><path d="m264.5 203.1h-111.1c-.6 0-1-.4-1-1s.4-1 1-1h110.2l7-67.7-129.2-6.1c-.6 0-1-.5-1-1 0-.6.5-1 1-1l130.2 6.1c.3 0 .5.1.7.3s.3.5.2.8l-7.3 69.6c.3.6-.2 1-.7 1z"/><ellipse cx="167.5" cy="230.4" rx="8.8" ry="8.7" transform="matrix(.7071 -.7071 .7071 .7071 -113.8833 185.8927)"/><ellipse cx="254.5" cy="230.4" rx="8.8" ry="8.7" transform="matrix(.7071 -.7071 .7071 .7071 -88.3981 247.4193)"/></g><path d="m94.1 132.4s5.6 31.8-6.6 46.8c-13.3 16.3-64 3.3-70.9 5-6.9 1.8-3.9 12.8-3.1 8.4.7-4.4 0-17.2.6-17.3 4.2-.2 50.7-4.9 50.6-13.2s-7.6-49.7 5.5-55.6c10.5-4.6 26.6 10.5 23.9 25.9z" fill="#eab3a4"/><path d="m83.7 109s-7 11.9 4.7 26.1c11.7 14.3 17.1 20.7 23.7 35.5 8 18-2.1 66.1 5.8 64 8-2 10 5.4 10 5.4s-.8-4.3-3.9-9.6 16.3-52.2 13.6-71.4c-2.6-19.1-35.7-81.3-53.9-50z" fill="#eab3a4"/><path d="m94.5 46.5s9.2.2 15.8 15.9c6.1 14.5-6.1 29.2-3.2 52.9 2 16.9-42.7 17.6-42.4 8.3s15-31.4 9.5-45.7-14.8-35.7 20.3-31.4z" fill="#dc9680"/><path d="m74.4 46.5s5.6 6.4 9.8 4.6c4.2-1.7 3.5-5.3 4.8-5.2s5.2-1.7 9 1.5c3.9 3.1 11.9 10.9 13.4 18.7s2.6 13 1.5 17.6 3.9 28.5 2.9 30.7c0 0-35.3 13.8-50.2-1.9-2.5-2.7 10.8-23.8 8.2-32.8s-8.9-23.4-8.5-28.2c.5-4.8 9.1-5 9.1-5z" fill="#263238"/><path d="m95.4 20s-1.4 5.2 5.8 6.5 24.6 1.3 26.6 4.3-19.3 9.1-22 12.4 8.1 22.8 8.1 22.8 39.3-17.4 32.1-37.5c-5.8-16.1-40.7-4.4-43.6-4.6-3.1-.3-7.4-6.9-7-3.9z" fill="#eab3a4"/><path d="m23.3 175.1s.3 9.2-.8 9.2c-6.4.2-8.7 16.7-9.7 13.9s-1.9-21.8-.9-23c1.1-1.2 11.4-.1 11.4-.1z" fill="#263238"/><path d="m18.3 182.2c-.1.1-.1.3 0 .5l1.2 3.3c.1.4.5.5.9.4s.5-.5.4-.9l-1.2-3.3c-.1-.4-.5-.5-.9-.4-.2.1-.4.3-.4.4z" fill="#3e2d4a"/><path d="m15.3 183.7c-.1.2 0 .5.1.7l2.7 3.2c.2.3.7.3 1 .1s.3-.7.1-1l-2.7-3.2c-.2-.3-.7-.3-1-.1-.1.1-.2.2-.2.3z" fill="#3e2d4a"/><path d="m13.6 187c-.1.3 0 .6.3.8l3.5 2.1c.3.2.7.1.9-.2s.1-.7-.2-.9l-3.5-2.1c-.3-.2-.7-.1-.9.2-.1 0-.1.1-.1.1z" fill="#3e2d4a"/><path d="m86.1 154.4s-2.6 14.2-8.4 18.9-32.2 1.7-33.6 1.4c-1.4-.4 19.6-3.7 21.3-6.6s5.1-13.7 5.1-13.7z" fill="#cc5a5d" opacity=".5"/><path d="m106.5 152.7s11-6.5 12.4-5.4 5.6 17.9 6.1 27.1c.6 9.3-4.9 27.2-6.4 27.6-1.4.5 0-22.4-2.9-30.3s-9.2-19-9.2-19z" fill="#cc5a5d" opacity=".5"/><path d="m63.3 119.2s46.8.9 52.6-4.8c0 0 7.4 7.6 13.6 22 .7 1.6-28.4 16.4-28.4 16.4l-5.7-9.3v7.5s-29.6.9-32.4-1.2c-2.8-2.2-2.1-24 .3-30.6z" fill="#8f4221"/><path d="m50.7 108.4 35.8 11.3-13 44.7-37.7-13.3z" fill="#e6b11b"/><path d="m52 115.3c-.1 0-.3 0-.4-.1-.5-.2-.7-.8-.5-1.3.1-.2 2.5-5.7 6.5-10.6.3-.4 1-.5 1.4-.2s.5 1 .2 1.4c-3.8 4.7-6.2 10.1-6.2 10.2-.2.4-.6.6-1 .6z" fill="#3e2d4a"/><path d="m38.3 148.6 11.1-25 10.5 28 5.8 6.1z" fill="#c53a1e" opacity=".2"/><path d="m115.1 227.9s9.2.4 9.1 1.5c-.3 6.4 16 9.9 13.1 10.7s-21.8.3-23-.8c-1.1-1.2.8-11.4.8-11.4z" fill="#263238"/><path d="m121.8 233.5c.1.1.3.1.5 0l3.3-1c.4-.1.6-.5.5-.8-.1-.4-.5-.6-.8-.5l-3.3 1c-.4.1-.6.5-.5.8 0 .2.1.4.3.5z" fill="#3e2d4a"/><path d="m123.1 236.6c.2.1.5.1.7-.1l3.4-2.5c.3-.2.4-.6.1-.9-.2-.3-.6-.4-.9-.1l-3.4 2.5c-.3.2-.4.6-.1.9 0 0 .1.1.2.2z" fill="#3e2d4a"/><path d="m126.2 238.5c.3.1.6 0 .8-.2l2.4-3.3c.2-.3.1-.7-.2-.9s-.7-.1-.9.2l-2.4 3.3c-.2.3-.1.7.2.9-0-.1.1 0 .1 0z" fill="#3e2d4a"/><path d="m69.6 46s-31.3 13-21.5 46.8c7.8 27.1 64.6 14.9 71.6 15.4 5 .4 6.6 6.1 7.1 4.1.6-2.1 0-6.6-6.8-9.1-5.6-2.1-42.1-4.5-45.5-19.9-3.9-17.7 7.6-37.9-4.9-37.3z" fill="#eab3a4"/><path d="m46.3 81.9s26.6 0 31.5-6.4c2.1-2.8 1.6-28.3-4.9-30.1-6.5-1.6-28.9 11.8-26.6 36.5z" fill="#263238"/><path d="m112.7 39.3s16.5 14.9 14.3 21.1c-3.4 9.3-18 13.6-21.1 12.7s-16.6-26.9-13-27.5c7.6-1.2 18.5-8.5 19.8-6.3z" fill="#263238"/><path d="m103.3 149.3s21.9-11.1 21.6-12.9-7.8-16.9-10.8-17c-3-.2-21.7 4.5-25.7 4.4s-8.7 25.6-8.7 25.6 12.3-.7 12.5-1 2.5-11.1 2.5-11.1z" fill="#3e2d4a" opacity=".1"/><path d="m49.5 85.3s5.9-.9 10.1-2c4.1-1.1 2.5 15.6 14.6 19.9s20.6 4.6 18.1 5.4-19.3 1.1-29.8-3.8-13.9-16-13-19.5z" fill="#cc5a5d" opacity=".5"/><path d="m81.6 122.9c-.1 0-.2 0-.3-.1-.5-.2-.8-.8-.6-1.3 6.5-18 .9-33.3.8-33.5-.2-.5.1-1.1.6-1.3s1.1.1 1.3.6c.2.7 5.9 16.2-.8 34.9-.2.5-.6.7-1 .7z" fill="#3e2d4a"/><path d="m127.2 54.5s-5-5.1-3.4-7 9.9-4.7 14.1-7.4c4.2-2.6 6.1-7.5 6.1-5.6s-1.3 11.9-16.8 20z" fill="#cc5a5d" opacity=".5"/><path d="m70.5 45.4s6.8 0 6.5-13.9c-.1-5.2 4.3-5.8 5.5-4.3s-3.3 19.5 6.6 18.8c1.3-.1-1.9 18.9-18.6-.6z" fill="#eab3a4"/><path d="m85.7 27.5s2.1 10.8-2.9 9.5c-12.6-3.2-6.4-14.5-4.1-14.9s6.3 1.5 7 5.4z" fill="#eab3a4"/><path d="m82 22.7s1.3 5.6-3.3 7.9c-2 1-1.9-2.4-2.8-.9-1.6 2.5.8 1.8 1.3 3.5 1.1 4.3-4.6 5.2-6.4-1-.4-1.3-.2-3.2 1.9-7.6s9.1-5.6 11.5-3.7c2.5 1.9 5.6 8.6 3.7 8.2-1.9-.3-5.8-2.9-5.9-6.4z" fill="#263238"/><path d="m78 34.5s1.4 2.1 4.1 2.5c0 0-.4 3.5.5 5.3.3.5-6.3-1.4-4.6-7.8z" fill="#cc5a5d" opacity=".5"/><circle cx="72.6" cy="16.8" fill="#263238" r="7"/><ellipse cx="238.5" cy="241.7" fill="#3e2d4a" opacity=".1" rx="223.1" ry="6.6"/></svg>